<svg width="32" height="32" viewBox="0 0 32 32" fill="none" xmlns="http://www.w3.org/2000/svg">
<path d="M16 28.72C15.6045 28.7209 15.2127 28.6437 14.8471 28.4927C14.4816 28.3416 14.1495 28.1198 13.87 27.84L3.56999 17.54C2.75632 16.7175 2.11448 15.7413 1.68183 14.6682C1.24919 13.5952 1.0344 12.4468 1.04999 11.29C1.05783 10.2298 1.27474 9.1816 1.68832 8.20541C2.10189 7.22921 2.70399 6.3442 3.46013 5.60106C4.21627 4.85792 5.1116 4.27127 6.09482 3.87469C7.07804 3.47811 8.12985 3.27941 9.18999 3.28996C10.2691 3.27909 11.3394 3.48504 12.3374 3.89558C13.3355 4.30613 14.2409 4.91292 15 5.67996L16 6.67996L16.82 5.85996C18.2359 4.40653 20.1306 3.51547 22.1531 3.35183C24.1756 3.1882 26.1888 3.76306 27.82 4.96996C28.7485 5.68501 29.514 6.58968 30.0656 7.62372C30.6171 8.65776 30.942 9.79745 31.0187 10.9669C31.0953 12.1363 30.9219 13.3087 30.51 14.4058C30.0982 15.503 29.4572 16.4998 28.63 17.33L18.13 27.84C17.8505 28.1198 17.5184 28.3416 17.1529 28.4927C16.7873 28.6437 16.3955 28.7209 16 28.72Z" fill="white"/>
</svg>
