<svg width="40" height="40" viewBox="0 0 40 40" fill="none" xmlns="http://www.w3.org/2000/svg">
<g clip-path="url(#clip0_36_169)">
<path d="M30 37.5H10C8.34244 37.5 6.75273 36.8415 5.58063 35.6694C4.40853 34.4973 3.75005 32.9076 3.75005 31.25C3.74875 31.1009 3.77415 30.9527 3.82505 30.8125C5.02629 27.6437 7.16046 24.9138 9.9457 22.9833C12.7309 21.0529 16.0362 20.0126 19.425 20H20.575C23.9639 20.0126 27.2692 21.0529 30.0544 22.9833C32.8396 24.9138 34.9738 27.6437 36.175 30.8125C36.2259 30.9527 36.2513 31.1009 36.25 31.25C36.25 32.9076 35.5916 34.4973 34.4195 35.6694C33.2474 36.8415 31.6577 37.5 30 37.5ZM6.25005 31.4625C6.30438 32.4198 6.72333 33.3199 7.42079 33.9778C8.11825 34.6358 9.04123 35.0015 10 35H30C30.9589 35.0015 31.8819 34.6358 32.5793 33.9778C33.2768 33.3199 33.6957 32.4198 33.75 31.4625C32.6981 28.8251 30.8815 26.5626 28.5338 24.9655C26.1861 23.3684 23.4145 22.5098 20.575 22.5H19.425C16.5856 22.5098 13.814 23.3684 11.4663 24.9655C9.11859 26.5626 7.30204 28.8251 6.25005 31.4625Z" fill="white"/>
<path d="M20 18.75C18.5166 18.75 17.0666 18.3101 15.8332 17.486C14.5999 16.6619 13.6386 15.4906 13.0709 14.1201C12.5032 12.7497 12.3547 11.2417 12.6441 9.78682C12.9335 8.33196 13.6478 6.99559 14.6967 5.9467C15.7456 4.89781 17.082 4.1835 18.5368 3.89411C19.9917 3.60472 21.4997 3.75325 22.8701 4.3209C24.2406 4.88856 25.4119 5.84985 26.236 7.08322C27.0601 8.31659 27.5 9.76664 27.5 11.25C27.5 13.2391 26.7098 15.1468 25.3033 16.5533C23.8968 17.9598 21.9891 18.75 20 18.75ZM20 6.25C19.0111 6.25 18.0444 6.54324 17.2222 7.09265C16.3999 7.64206 15.759 8.42295 15.3806 9.33658C15.0022 10.2502 14.9032 11.2555 15.0961 12.2255C15.289 13.1954 15.7652 14.0863 16.4645 14.7855C17.1637 15.4848 18.0546 15.961 19.0246 16.1539C19.9945 16.3469 20.9998 16.2478 21.9134 15.8694C22.827 15.491 23.6079 14.8501 24.1574 14.0279C24.7068 13.2056 25 12.2389 25 11.25C25 9.92392 24.4732 8.65215 23.5355 7.71447C22.5979 6.77678 21.3261 6.25 20 6.25Z" fill="white"/>
<path d="M30 37.5H10C8.34244 37.5 6.75273 36.8415 5.58063 35.6694C4.40853 34.4973 3.75005 32.9076 3.75005 31.25C3.74875 31.1009 3.77415 30.9527 3.82505 30.8125C5.02629 27.6437 7.16046 24.9138 9.9457 22.9833C12.7309 21.0529 16.0362 20.0126 19.425 20H20.575C23.9639 20.0126 27.2692 21.0529 30.0544 22.9833C32.8396 24.9138 34.9738 27.6437 36.175 30.8125C36.2259 30.9527 36.2513 31.1009 36.25 31.25C36.25 32.9076 35.5916 34.4973 34.4195 35.6694C33.2474 36.8415 31.6577 37.5 30 37.5ZM6.25005 31.4625C6.30438 32.4198 6.72333 33.3199 7.42079 33.9778C8.11825 34.6358 9.04123 35.0015 10 35H30C30.9589 35.0015 31.8819 34.6358 32.5793 33.9778C33.2768 33.3199 33.6957 32.4198 33.75 31.4625C32.6981 28.8251 30.8815 26.5626 28.5338 24.9655C26.1861 23.3684 23.4145 22.5098 20.575 22.5H19.425C16.5856 22.5098 13.814 23.3684 11.4663 24.9655C9.11859 26.5626 7.30204 28.8251 6.25005 31.4625Z" fill="white"/>
</g>
<defs>
<clipPath id="clip0_36_169">
<rect width="40" height="40" fill="white"/>
</clipPath>
</defs>
</svg>
