<svg width="40" height="40" viewBox="0 0 40 40" fill="none" xmlns="http://www.w3.org/2000/svg">
<g clip-path="url(#clip0_36_162)">
<path d="M35 12.5H5C4.66848 12.5 4.35054 12.3683 4.11612 12.1339C3.8817 11.8995 3.75 11.5815 3.75 11.25C3.75 10.9185 3.8817 10.6005 4.11612 10.3661C4.35054 10.1317 4.66848 10 5 10H35C35.3315 10 35.6495 10.1317 35.8839 10.3661C36.1183 10.6005 36.25 10.9185 36.25 11.25C36.25 11.5815 36.1183 11.8995 35.8839 12.1339C35.6495 12.3683 35.3315 12.5 35 12.5Z" fill="white"/>
<path d="M35 21.25H5C4.66848 21.25 4.35054 21.1183 4.11612 20.8839C3.8817 20.6495 3.75 20.3315 3.75 20C3.75 19.6685 3.8817 19.3505 4.11612 19.1161C4.35054 18.8817 4.66848 18.75 5 18.75H35C35.3315 18.75 35.6495 18.8817 35.8839 19.1161C36.1183 19.3505 36.25 19.6685 36.25 20C36.25 20.3315 36.1183 20.6495 35.8839 20.8839C35.6495 21.1183 35.3315 21.25 35 21.25Z" fill="white"/>
<path d="M35 30H5C4.66848 30 4.35054 29.8683 4.11612 29.6339C3.8817 29.3995 3.75 29.0815 3.75 28.75C3.75 28.4185 3.8817 28.1005 4.11612 27.8661C4.35054 27.6317 4.66848 27.5 5 27.5H35C35.3315 27.5 35.6495 27.6317 35.8839 27.8661C36.1183 28.1005 36.25 28.4185 36.25 28.75C36.25 29.0815 36.1183 29.3995 35.8839 29.6339C35.6495 29.8683 35.3315 30 35 30Z" fill="white"/>
</g>
<defs>
<clipPath id="clip0_36_162">
<rect width="40" height="40" fill="white"/>
</clipPath>
</defs>
</svg>
