<svg width="40" height="40" viewBox="0 0 40 40" fill="none" xmlns="http://www.w3.org/2000/svg">
<g clip-path="url(#clip0_36_176)">
<path d="M16.25 28.75C13.7777 28.75 11.361 28.0169 9.30538 26.6434C7.24976 25.2699 5.64761 23.3176 4.70151 21.0335C3.75542 18.7495 3.50787 16.2361 3.99019 13.8114C4.4725 11.3866 5.66301 9.15932 7.41117 7.41117C9.15933 5.66301 11.3866 4.4725 13.8114 3.99018C16.2361 3.50787 18.7495 3.75541 21.0335 4.70151C23.3176 5.6476 25.2699 7.24976 26.6434 9.30537C28.0169 11.361 28.75 13.7777 28.75 16.25C28.75 17.8915 28.4267 19.517 27.7985 21.0335C27.1703 22.5501 26.2496 23.9281 25.0888 25.0888C23.9281 26.2496 22.5501 27.1703 21.0335 27.7985C19.517 28.4267 17.8915 28.75 16.25 28.75ZM16.25 6.25C14.2722 6.25 12.3388 6.83649 10.6943 7.9353C9.04981 9.03412 7.76809 10.5959 7.01121 12.4232C6.25433 14.2504 6.0563 16.2611 6.44215 18.2009C6.82801 20.1407 7.78041 21.9225 9.17894 23.3211C10.5775 24.7196 12.3593 25.672 14.2991 26.0579C16.2389 26.4437 18.2496 26.2457 20.0768 25.4888C21.9041 24.7319 23.4659 23.4502 24.5647 21.8057C25.6635 20.1612 26.25 18.2278 26.25 16.25C26.25 13.5978 25.1964 11.0543 23.3211 9.17893C21.4457 7.30357 18.9022 6.25 16.25 6.25Z" fill="white"/>
<path d="M35 36.25C34.8355 36.251 34.6724 36.2194 34.5201 36.1572C34.3678 36.095 34.2293 36.0034 34.1125 35.8875L24.1125 25.8875C23.9959 25.771 23.9035 25.6326 23.8404 25.4803C23.7773 25.328 23.7449 25.1648 23.7449 25C23.7449 24.8352 23.7773 24.672 23.8404 24.5197C23.9035 24.3674 23.9959 24.2291 24.1125 24.1125C24.229 23.996 24.3674 23.9035 24.5197 23.8404C24.672 23.7774 24.8352 23.7449 25 23.7449C25.1648 23.7449 25.328 23.7774 25.4803 23.8404C25.6326 23.9035 25.7709 23.996 25.8875 24.1125L35.8875 34.1125C36.0046 34.2287 36.0976 34.367 36.1611 34.5193C36.2246 34.6716 36.2572 34.835 36.2572 35C36.2572 35.165 36.2246 35.3284 36.1611 35.4807C36.0976 35.633 36.0046 35.7713 35.8875 35.8875C35.7707 36.0034 35.6322 36.095 35.4799 36.1572C35.3276 36.2194 35.1645 36.251 35 36.25Z" fill="white"/>
</g>
<defs>
<clipPath id="clip0_36_176">
<rect width="40" height="40" fill="white"/>
</clipPath>
</defs>
</svg>
